<mxfile host="app.diagrams.net" modified="2022-08-12T14:43:00.614Z" agent="5.0 (Windows NT 10.0; Win64; x64) AppleWebKit/537.36 (KHTML, like Gecko) Chrome/104.0.0.0 Safari/537.36" etag="Y0QToKxrbc8kL3OboDfG" version="20.2.3" type="github">
  <diagram id="C5RBs43oDa-KdzZeNtuy" name="Page-1">
    <mxGraphModel dx="1865" dy="578" grid="1" gridSize="10" guides="1" tooltips="1" connect="0" arrows="1" fold="1" page="1" pageScale="1" pageWidth="827" pageHeight="1169" math="0" shadow="0">
      <root>
        <mxCell id="WIyWlLk6GJQsqaUBKTNV-0" />
        <mxCell id="WIyWlLk6GJQsqaUBKTNV-1" parent="WIyWlLk6GJQsqaUBKTNV-0" />
        <mxCell id="WIyWlLk6GJQsqaUBKTNV-2" value="" style="rounded=0;html=1;jettySize=auto;orthogonalLoop=1;fontSize=11;endArrow=block;endFill=0;endSize=8;strokeWidth=1;shadow=0;labelBackgroundColor=none;edgeStyle=orthogonalEdgeStyle;" parent="WIyWlLk6GJQsqaUBKTNV-1" source="WIyWlLk6GJQsqaUBKTNV-3" edge="1">
          <mxGeometry relative="1" as="geometry">
            <mxPoint x="220" y="170" as="targetPoint" />
          </mxGeometry>
        </mxCell>
        <mxCell id="qhsXSyH2O3H2NR2jMQSX-20" value="" style="edgeStyle=orthogonalEdgeStyle;rounded=0;orthogonalLoop=1;jettySize=auto;html=1;" edge="1" parent="WIyWlLk6GJQsqaUBKTNV-1" source="WIyWlLk6GJQsqaUBKTNV-3" target="qhsXSyH2O3H2NR2jMQSX-19">
          <mxGeometry relative="1" as="geometry" />
        </mxCell>
        <mxCell id="WIyWlLk6GJQsqaUBKTNV-3" value="Start project:&lt;br&gt;Ask user if they want to start game" style="rounded=1;whiteSpace=wrap;html=1;fontSize=12;glass=0;strokeWidth=1;shadow=0;" parent="WIyWlLk6GJQsqaUBKTNV-1" vertex="1">
          <mxGeometry x="152.5" y="40" width="135" height="60" as="geometry" />
        </mxCell>
        <mxCell id="qhsXSyH2O3H2NR2jMQSX-1" value="Yes" style="text;html=1;strokeColor=none;fillColor=none;align=center;verticalAlign=middle;whiteSpace=wrap;rounded=0;" vertex="1" parent="WIyWlLk6GJQsqaUBKTNV-1">
          <mxGeometry x="210" y="130" width="60" height="30" as="geometry" />
        </mxCell>
        <mxCell id="qhsXSyH2O3H2NR2jMQSX-22" value="" style="edgeStyle=orthogonalEdgeStyle;rounded=0;orthogonalLoop=1;jettySize=auto;html=1;" edge="1" parent="WIyWlLk6GJQsqaUBKTNV-1" source="qhsXSyH2O3H2NR2jMQSX-10" target="qhsXSyH2O3H2NR2jMQSX-21">
          <mxGeometry relative="1" as="geometry" />
        </mxCell>
        <mxCell id="qhsXSyH2O3H2NR2jMQSX-10" value="The dealer (computer)&lt;br&gt;will randomly draw two cards for the user, and one for themselves. The sum will be calculated for the user." style="rounded=1;whiteSpace=wrap;html=1;" vertex="1" parent="WIyWlLk6GJQsqaUBKTNV-1">
          <mxGeometry x="135" y="170" width="170" height="90" as="geometry" />
        </mxCell>
        <mxCell id="qhsXSyH2O3H2NR2jMQSX-17" value="User: [2, 10]" style="whiteSpace=wrap;html=1;align=center;fillColor=#dae8fc;strokeColor=#6c8ebf;" vertex="1" parent="WIyWlLk6GJQsqaUBKTNV-1">
          <mxGeometry x="350" y="202.5" width="100" height="25" as="geometry" />
        </mxCell>
        <mxCell id="qhsXSyH2O3H2NR2jMQSX-18" value="Computer: [5, 10(hidden)]" style="whiteSpace=wrap;html=1;align=center;fillColor=#dae8fc;strokeColor=#6c8ebf;" vertex="1" parent="WIyWlLk6GJQsqaUBKTNV-1">
          <mxGeometry x="470" y="196.25" width="110" height="37.5" as="geometry" />
        </mxCell>
        <mxCell id="qhsXSyH2O3H2NR2jMQSX-19" value="End Program" style="rounded=1;whiteSpace=wrap;html=1;fontSize=12;glass=0;strokeWidth=1;shadow=0;fillColor=#f5f5f5;fontColor=#333333;strokeColor=#666666;" vertex="1" parent="WIyWlLk6GJQsqaUBKTNV-1">
          <mxGeometry x="370" y="60" width="110" height="20" as="geometry" />
        </mxCell>
        <mxCell id="qhsXSyH2O3H2NR2jMQSX-26" value="" style="edgeStyle=orthogonalEdgeStyle;rounded=0;orthogonalLoop=1;jettySize=auto;html=1;" edge="1" parent="WIyWlLk6GJQsqaUBKTNV-1" source="qhsXSyH2O3H2NR2jMQSX-21" target="qhsXSyH2O3H2NR2jMQSX-25">
          <mxGeometry relative="1" as="geometry" />
        </mxCell>
        <mxCell id="qhsXSyH2O3H2NR2jMQSX-21" value="Add up the scores for the user" style="rounded=1;whiteSpace=wrap;html=1;" vertex="1" parent="WIyWlLk6GJQsqaUBKTNV-1">
          <mxGeometry x="128.14" y="300" width="183.75" height="40" as="geometry" />
        </mxCell>
        <mxCell id="qhsXSyH2O3H2NR2jMQSX-24" value="Computer&#39;s first card: 5" style="whiteSpace=wrap;html=1;align=center;fillColor=#dae8fc;strokeColor=#6c8ebf;" vertex="1" parent="WIyWlLk6GJQsqaUBKTNV-1">
          <mxGeometry x="560" y="302.5" width="110" height="35" as="geometry" />
        </mxCell>
        <mxCell id="qhsXSyH2O3H2NR2jMQSX-29" value="" style="edgeStyle=orthogonalEdgeStyle;rounded=0;orthogonalLoop=1;jettySize=auto;html=1;" edge="1" parent="WIyWlLk6GJQsqaUBKTNV-1" source="qhsXSyH2O3H2NR2jMQSX-25" target="qhsXSyH2O3H2NR2jMQSX-28">
          <mxGeometry relative="1" as="geometry" />
        </mxCell>
        <mxCell id="qhsXSyH2O3H2NR2jMQSX-37" value="" style="edgeStyle=orthogonalEdgeStyle;rounded=0;orthogonalLoop=1;jettySize=auto;html=1;" edge="1" parent="WIyWlLk6GJQsqaUBKTNV-1" source="qhsXSyH2O3H2NR2jMQSX-25" target="qhsXSyH2O3H2NR2jMQSX-36">
          <mxGeometry relative="1" as="geometry" />
        </mxCell>
        <mxCell id="qhsXSyH2O3H2NR2jMQSX-25" value="Check if either the&lt;br&gt;user or comp have a blackjack" style="strokeWidth=1;html=1;shape=mxgraph.flowchart.decision;whiteSpace=wrap;" vertex="1" parent="WIyWlLk6GJQsqaUBKTNV-1">
          <mxGeometry x="140.01" y="430" width="160" height="100" as="geometry" />
        </mxCell>
        <mxCell id="qhsXSyH2O3H2NR2jMQSX-28" value="" style="strokeWidth=1;html=1;shape=mxgraph.flowchart.annotation_1;align=left;pointerEvents=1;" vertex="1" parent="WIyWlLk6GJQsqaUBKTNV-1">
          <mxGeometry x="350" y="452.5" width="50" height="55" as="geometry" />
        </mxCell>
        <mxCell id="qhsXSyH2O3H2NR2jMQSX-30" value="User wins" style="rounded=1;whiteSpace=wrap;html=1;absoluteArcSize=1;arcSize=14;strokeWidth=1;fillColor=#d5e8d4;strokeColor=#82b366;" vertex="1" parent="WIyWlLk6GJQsqaUBKTNV-1">
          <mxGeometry x="390" y="430" width="120" height="30" as="geometry" />
        </mxCell>
        <mxCell id="qhsXSyH2O3H2NR2jMQSX-32" value="User has blackjack" style="text;html=1;strokeColor=none;fillColor=none;align=center;verticalAlign=middle;whiteSpace=wrap;rounded=0;" vertex="1" parent="WIyWlLk6GJQsqaUBKTNV-1">
          <mxGeometry x="330" y="400" width="60" height="30" as="geometry" />
        </mxCell>
        <mxCell id="qhsXSyH2O3H2NR2jMQSX-33" value="Computer wins" style="rounded=1;whiteSpace=wrap;html=1;absoluteArcSize=1;arcSize=14;strokeWidth=1;fillColor=#f8cecc;strokeColor=#b85450;" vertex="1" parent="WIyWlLk6GJQsqaUBKTNV-1">
          <mxGeometry x="390" y="490" width="120" height="30" as="geometry" />
        </mxCell>
        <mxCell id="qhsXSyH2O3H2NR2jMQSX-34" value="Computer has blackjack" style="text;html=1;strokeColor=none;fillColor=none;align=center;verticalAlign=middle;whiteSpace=wrap;rounded=0;" vertex="1" parent="WIyWlLk6GJQsqaUBKTNV-1">
          <mxGeometry x="330" y="530" width="60" height="30" as="geometry" />
        </mxCell>
        <mxCell id="qhsXSyH2O3H2NR2jMQSX-44" value="" style="edgeStyle=orthogonalEdgeStyle;rounded=0;orthogonalLoop=1;jettySize=auto;html=1;" edge="1" parent="WIyWlLk6GJQsqaUBKTNV-1">
          <mxGeometry relative="1" as="geometry">
            <mxPoint x="317.51" y="656" as="sourcePoint" />
            <mxPoint x="435.01" y="656" as="targetPoint" />
          </mxGeometry>
        </mxCell>
        <mxCell id="qhsXSyH2O3H2NR2jMQSX-64" value="" style="edgeStyle=orthogonalEdgeStyle;rounded=0;orthogonalLoop=1;jettySize=auto;html=1;" edge="1" parent="WIyWlLk6GJQsqaUBKTNV-1" source="qhsXSyH2O3H2NR2jMQSX-36">
          <mxGeometry relative="1" as="geometry">
            <mxPoint x="220.01" y="761" as="targetPoint" />
          </mxGeometry>
        </mxCell>
        <mxCell id="qhsXSyH2O3H2NR2jMQSX-36" value="Is the user&#39;s score over 21?" style="strokeWidth=1;html=1;shape=mxgraph.flowchart.decision;whiteSpace=wrap;" vertex="1" parent="WIyWlLk6GJQsqaUBKTNV-1">
          <mxGeometry x="122.51" y="600" width="195" height="110" as="geometry" />
        </mxCell>
        <mxCell id="qhsXSyH2O3H2NR2jMQSX-40" value="No" style="text;html=1;strokeColor=none;fillColor=none;align=center;verticalAlign=middle;whiteSpace=wrap;rounded=0;" vertex="1" parent="WIyWlLk6GJQsqaUBKTNV-1">
          <mxGeometry x="210" y="555" width="60" height="30" as="geometry" />
        </mxCell>
        <mxCell id="qhsXSyH2O3H2NR2jMQSX-41" value="Yes" style="text;html=1;strokeColor=none;fillColor=none;align=center;verticalAlign=middle;whiteSpace=wrap;rounded=0;" vertex="1" parent="WIyWlLk6GJQsqaUBKTNV-1">
          <mxGeometry x="280" y="440" width="60" height="30" as="geometry" />
        </mxCell>
        <mxCell id="qhsXSyH2O3H2NR2jMQSX-45" value="Yes" style="text;html=1;strokeColor=none;fillColor=none;align=center;verticalAlign=middle;whiteSpace=wrap;rounded=0;" vertex="1" parent="WIyWlLk6GJQsqaUBKTNV-1">
          <mxGeometry x="330" y="626" width="60" height="30" as="geometry" />
        </mxCell>
        <mxCell id="qhsXSyH2O3H2NR2jMQSX-48" value="" style="edgeStyle=orthogonalEdgeStyle;rounded=0;orthogonalLoop=1;jettySize=auto;html=1;" edge="1" parent="WIyWlLk6GJQsqaUBKTNV-1">
          <mxGeometry relative="1" as="geometry">
            <mxPoint x="510" y="656" as="sourcePoint" />
            <mxPoint x="592.5" y="656" as="targetPoint" />
          </mxGeometry>
        </mxCell>
        <mxCell id="qhsXSyH2O3H2NR2jMQSX-52" value="" style="edgeStyle=orthogonalEdgeStyle;rounded=0;orthogonalLoop=1;jettySize=auto;html=1;entryX=0.477;entryY=1.16;entryDx=0;entryDy=0;entryPerimeter=0;" edge="1" parent="WIyWlLk6GJQsqaUBKTNV-1" target="qhsXSyH2O3H2NR2jMQSX-33">
          <mxGeometry relative="1" as="geometry">
            <mxPoint x="447.5" y="696" as="sourcePoint" />
            <mxPoint x="447.5" y="741" as="targetPoint" />
          </mxGeometry>
        </mxCell>
        <mxCell id="qhsXSyH2O3H2NR2jMQSX-46" value="Does the user&lt;br&gt;have an ace?" style="rhombus;whiteSpace=wrap;html=1;strokeWidth=1;" vertex="1" parent="WIyWlLk6GJQsqaUBKTNV-1">
          <mxGeometry x="385" y="615" width="125" height="80" as="geometry" />
        </mxCell>
        <mxCell id="qhsXSyH2O3H2NR2jMQSX-53" value="&amp;nbsp;No" style="text;html=1;strokeColor=none;fillColor=none;align=center;verticalAlign=middle;whiteSpace=wrap;rounded=0;" vertex="1" parent="WIyWlLk6GJQsqaUBKTNV-1">
          <mxGeometry x="430" y="570" width="60" height="30" as="geometry" />
        </mxCell>
        <mxCell id="qhsXSyH2O3H2NR2jMQSX-55" value="Yes" style="text;html=1;strokeColor=none;fillColor=none;align=center;verticalAlign=middle;whiteSpace=wrap;rounded=0;" vertex="1" parent="WIyWlLk6GJQsqaUBKTNV-1">
          <mxGeometry x="510" y="626" width="60" height="30" as="geometry" />
        </mxCell>
        <mxCell id="qhsXSyH2O3H2NR2jMQSX-59" value="" style="edgeStyle=orthogonalEdgeStyle;rounded=0;orthogonalLoop=1;jettySize=auto;html=1;entryX=0.996;entryY=0.513;entryDx=0;entryDy=0;entryPerimeter=0;" edge="1" parent="WIyWlLk6GJQsqaUBKTNV-1" target="qhsXSyH2O3H2NR2jMQSX-65">
          <mxGeometry relative="1" as="geometry">
            <mxPoint x="680" y="703.5" as="sourcePoint" />
            <mxPoint x="680" y="756" as="targetPoint" />
            <Array as="points">
              <mxPoint x="680" y="760" />
              <mxPoint x="307" y="760" />
            </Array>
          </mxGeometry>
        </mxCell>
        <mxCell id="qhsXSyH2O3H2NR2jMQSX-94" value="" style="edgeStyle=orthogonalEdgeStyle;rounded=0;orthogonalLoop=1;jettySize=auto;html=1;entryX=0.753;entryY=0.989;entryDx=0;entryDy=0;entryPerimeter=0;" edge="1" parent="WIyWlLk6GJQsqaUBKTNV-1" source="qhsXSyH2O3H2NR2jMQSX-57" target="qhsXSyH2O3H2NR2jMQSX-33">
          <mxGeometry relative="1" as="geometry">
            <Array as="points">
              <mxPoint x="680" y="560" />
              <mxPoint x="508" y="560" />
              <mxPoint x="508" y="520" />
            </Array>
          </mxGeometry>
        </mxCell>
        <mxCell id="qhsXSyH2O3H2NR2jMQSX-57" value="The aces count&lt;br&gt;as 1. Is the user sill&lt;br&gt;over 21?" style="rhombus;whiteSpace=wrap;html=1;strokeWidth=1;" vertex="1" parent="WIyWlLk6GJQsqaUBKTNV-1">
          <mxGeometry x="590" y="607.5" width="180" height="95" as="geometry" />
        </mxCell>
        <mxCell id="qhsXSyH2O3H2NR2jMQSX-62" value="No" style="text;html=1;strokeColor=none;fillColor=none;align=center;verticalAlign=middle;whiteSpace=wrap;rounded=0;" vertex="1" parent="WIyWlLk6GJQsqaUBKTNV-1">
          <mxGeometry x="630" y="760" width="60" height="30" as="geometry" />
        </mxCell>
        <mxCell id="qhsXSyH2O3H2NR2jMQSX-67" value="" style="edgeStyle=orthogonalEdgeStyle;rounded=0;orthogonalLoop=1;jettySize=auto;html=1;" edge="1" parent="WIyWlLk6GJQsqaUBKTNV-1" source="qhsXSyH2O3H2NR2jMQSX-65" target="qhsXSyH2O3H2NR2jMQSX-66">
          <mxGeometry relative="1" as="geometry" />
        </mxCell>
        <mxCell id="qhsXSyH2O3H2NR2jMQSX-72" value="" style="edgeStyle=orthogonalEdgeStyle;rounded=0;orthogonalLoop=1;jettySize=auto;html=1;" edge="1" parent="WIyWlLk6GJQsqaUBKTNV-1" source="qhsXSyH2O3H2NR2jMQSX-65" target="qhsXSyH2O3H2NR2jMQSX-71">
          <mxGeometry relative="1" as="geometry" />
        </mxCell>
        <mxCell id="qhsXSyH2O3H2NR2jMQSX-65" value="Does the user want to hit&lt;br&gt;or stand" style="rhombus;whiteSpace=wrap;html=1;strokeWidth=1;" vertex="1" parent="WIyWlLk6GJQsqaUBKTNV-1">
          <mxGeometry x="132.51999999999998" y="750" width="174.99" height="130" as="geometry" />
        </mxCell>
        <mxCell id="qhsXSyH2O3H2NR2jMQSX-69" value="" style="edgeStyle=orthogonalEdgeStyle;rounded=0;orthogonalLoop=1;jettySize=auto;html=1;entryX=-0.021;entryY=0.5;entryDx=0;entryDy=0;entryPerimeter=0;" edge="1" parent="WIyWlLk6GJQsqaUBKTNV-1" source="qhsXSyH2O3H2NR2jMQSX-66" target="qhsXSyH2O3H2NR2jMQSX-21">
          <mxGeometry relative="1" as="geometry">
            <mxPoint x="-35" y="360" as="targetPoint" />
            <Array as="points">
              <mxPoint x="40" y="320" />
            </Array>
          </mxGeometry>
        </mxCell>
        <mxCell id="qhsXSyH2O3H2NR2jMQSX-66" value="Draw another card" style="rounded=1;whiteSpace=wrap;html=1;strokeWidth=1;" vertex="1" parent="WIyWlLk6GJQsqaUBKTNV-1">
          <mxGeometry x="-19.99500000000002" y="785" width="120" height="60" as="geometry" />
        </mxCell>
        <mxCell id="qhsXSyH2O3H2NR2jMQSX-70" value="Yes (hit)" style="text;html=1;strokeColor=none;fillColor=none;align=center;verticalAlign=middle;whiteSpace=wrap;rounded=0;" vertex="1" parent="WIyWlLk6GJQsqaUBKTNV-1">
          <mxGeometry x="92.5" y="760" width="60" height="30" as="geometry" />
        </mxCell>
        <mxCell id="qhsXSyH2O3H2NR2jMQSX-75" value="" style="edgeStyle=orthogonalEdgeStyle;rounded=0;orthogonalLoop=1;jettySize=auto;html=1;" edge="1" parent="WIyWlLk6GJQsqaUBKTNV-1" source="qhsXSyH2O3H2NR2jMQSX-71">
          <mxGeometry relative="1" as="geometry">
            <mxPoint x="220.01499999999987" y="1070" as="targetPoint" />
          </mxGeometry>
        </mxCell>
        <mxCell id="qhsXSyH2O3H2NR2jMQSX-71" value="Computer plays" style="rounded=1;whiteSpace=wrap;html=1;strokeWidth=1;" vertex="1" parent="WIyWlLk6GJQsqaUBKTNV-1">
          <mxGeometry x="160.015" y="940" width="120" height="60" as="geometry" />
        </mxCell>
        <mxCell id="qhsXSyH2O3H2NR2jMQSX-73" value="&amp;nbsp;No" style="text;html=1;strokeColor=none;fillColor=none;align=center;verticalAlign=middle;whiteSpace=wrap;rounded=0;" vertex="1" parent="WIyWlLk6GJQsqaUBKTNV-1">
          <mxGeometry x="210" y="890" width="60" height="30" as="geometry" />
        </mxCell>
        <mxCell id="qhsXSyH2O3H2NR2jMQSX-78" value="" style="edgeStyle=orthogonalEdgeStyle;rounded=0;orthogonalLoop=1;jettySize=auto;html=1;" edge="1" parent="WIyWlLk6GJQsqaUBKTNV-1" source="qhsXSyH2O3H2NR2jMQSX-76">
          <mxGeometry relative="1" as="geometry">
            <mxPoint x="350" y="1105" as="targetPoint" />
          </mxGeometry>
        </mxCell>
        <mxCell id="qhsXSyH2O3H2NR2jMQSX-88" value="" style="edgeStyle=orthogonalEdgeStyle;rounded=0;orthogonalLoop=1;jettySize=auto;html=1;entryX=0.495;entryY=0.047;entryDx=0;entryDy=0;entryPerimeter=0;" edge="1" parent="WIyWlLk6GJQsqaUBKTNV-1" source="qhsXSyH2O3H2NR2jMQSX-76" target="qhsXSyH2O3H2NR2jMQSX-89">
          <mxGeometry relative="1" as="geometry">
            <mxPoint x="90" y="1105" as="targetPoint" />
          </mxGeometry>
        </mxCell>
        <mxCell id="qhsXSyH2O3H2NR2jMQSX-76" value="Is comp&#39;s&lt;br&gt;score under 17" style="rhombus;whiteSpace=wrap;html=1;strokeWidth=1;" vertex="1" parent="WIyWlLk6GJQsqaUBKTNV-1">
          <mxGeometry x="145" y="1070" width="150" height="70" as="geometry" />
        </mxCell>
        <mxCell id="qhsXSyH2O3H2NR2jMQSX-79" value="&amp;nbsp;No" style="text;html=1;strokeColor=none;fillColor=none;align=center;verticalAlign=middle;whiteSpace=wrap;rounded=0;" vertex="1" parent="WIyWlLk6GJQsqaUBKTNV-1">
          <mxGeometry x="280.01" y="1070" width="60" height="30" as="geometry" />
        </mxCell>
        <mxCell id="qhsXSyH2O3H2NR2jMQSX-82" value="" style="edgeStyle=orthogonalEdgeStyle;rounded=0;orthogonalLoop=1;jettySize=auto;html=1;" edge="1" parent="WIyWlLk6GJQsqaUBKTNV-1" source="qhsXSyH2O3H2NR2jMQSX-80" target="qhsXSyH2O3H2NR2jMQSX-81">
          <mxGeometry relative="1" as="geometry" />
        </mxCell>
        <mxCell id="qhsXSyH2O3H2NR2jMQSX-84" value="" style="edgeStyle=orthogonalEdgeStyle;rounded=0;orthogonalLoop=1;jettySize=auto;html=1;" edge="1" parent="WIyWlLk6GJQsqaUBKTNV-1" source="qhsXSyH2O3H2NR2jMQSX-80" target="qhsXSyH2O3H2NR2jMQSX-83">
          <mxGeometry relative="1" as="geometry" />
        </mxCell>
        <mxCell id="qhsXSyH2O3H2NR2jMQSX-80" value="Is user&#39;s score&lt;br&gt;higher than comp?" style="rhombus;whiteSpace=wrap;html=1;strokeWidth=1;" vertex="1" parent="WIyWlLk6GJQsqaUBKTNV-1">
          <mxGeometry x="350" y="1058.75" width="170" height="92.5" as="geometry" />
        </mxCell>
        <mxCell id="qhsXSyH2O3H2NR2jMQSX-81" value="User wins" style="rounded=1;whiteSpace=wrap;html=1;strokeWidth=1;fillColor=#d5e8d4;strokeColor=#82b366;" vertex="1" parent="WIyWlLk6GJQsqaUBKTNV-1">
          <mxGeometry x="375" y="980" width="120" height="30" as="geometry" />
        </mxCell>
        <mxCell id="qhsXSyH2O3H2NR2jMQSX-83" value="Comp wins" style="rounded=1;whiteSpace=wrap;html=1;strokeWidth=1;fillColor=#f8cecc;strokeColor=#b85450;" vertex="1" parent="WIyWlLk6GJQsqaUBKTNV-1">
          <mxGeometry x="600" y="1087.5" width="120" height="35" as="geometry" />
        </mxCell>
        <mxCell id="qhsXSyH2O3H2NR2jMQSX-85" value="&amp;nbsp;No" style="text;html=1;strokeColor=none;fillColor=none;align=center;verticalAlign=middle;whiteSpace=wrap;rounded=0;" vertex="1" parent="WIyWlLk6GJQsqaUBKTNV-1">
          <mxGeometry x="530" y="1075" width="60" height="30" as="geometry" />
        </mxCell>
        <mxCell id="qhsXSyH2O3H2NR2jMQSX-86" value="Yes" style="text;html=1;strokeColor=none;fillColor=none;align=center;verticalAlign=middle;whiteSpace=wrap;rounded=0;" vertex="1" parent="WIyWlLk6GJQsqaUBKTNV-1">
          <mxGeometry x="430" y="1020" width="60" height="30" as="geometry" />
        </mxCell>
        <mxCell id="qhsXSyH2O3H2NR2jMQSX-91" value="" style="edgeStyle=orthogonalEdgeStyle;rounded=0;orthogonalLoop=1;jettySize=auto;html=1;" edge="1" parent="WIyWlLk6GJQsqaUBKTNV-1" source="qhsXSyH2O3H2NR2jMQSX-89" target="qhsXSyH2O3H2NR2jMQSX-90">
          <mxGeometry relative="1" as="geometry" />
        </mxCell>
        <mxCell id="qhsXSyH2O3H2NR2jMQSX-89" value="Computer draws another card" style="rounded=1;whiteSpace=wrap;html=1;strokeWidth=1;" vertex="1" parent="WIyWlLk6GJQsqaUBKTNV-1">
          <mxGeometry x="160" y="1190" width="120" height="50" as="geometry" />
        </mxCell>
        <mxCell id="qhsXSyH2O3H2NR2jMQSX-97" value="" style="edgeStyle=orthogonalEdgeStyle;rounded=0;orthogonalLoop=1;jettySize=auto;html=1;" edge="1" parent="WIyWlLk6GJQsqaUBKTNV-1" source="qhsXSyH2O3H2NR2jMQSX-90" target="qhsXSyH2O3H2NR2jMQSX-96">
          <mxGeometry relative="1" as="geometry" />
        </mxCell>
        <mxCell id="qhsXSyH2O3H2NR2jMQSX-99" value="" style="edgeStyle=orthogonalEdgeStyle;rounded=0;orthogonalLoop=1;jettySize=auto;html=1;" edge="1" parent="WIyWlLk6GJQsqaUBKTNV-1" source="qhsXSyH2O3H2NR2jMQSX-90" target="qhsXSyH2O3H2NR2jMQSX-98">
          <mxGeometry relative="1" as="geometry" />
        </mxCell>
        <mxCell id="qhsXSyH2O3H2NR2jMQSX-90" value="Is the comp over 21?" style="rhombus;whiteSpace=wrap;html=1;strokeWidth=1;" vertex="1" parent="WIyWlLk6GJQsqaUBKTNV-1">
          <mxGeometry x="137.51" y="1280" width="165" height="102.5" as="geometry" />
        </mxCell>
        <mxCell id="qhsXSyH2O3H2NR2jMQSX-92" value="Yes" style="text;html=1;strokeColor=none;fillColor=none;align=center;verticalAlign=middle;whiteSpace=wrap;rounded=0;" vertex="1" parent="WIyWlLk6GJQsqaUBKTNV-1">
          <mxGeometry x="210" y="1151.25" width="60" height="30" as="geometry" />
        </mxCell>
        <mxCell id="qhsXSyH2O3H2NR2jMQSX-95" value="Yes" style="text;html=1;strokeColor=none;fillColor=none;align=center;verticalAlign=middle;whiteSpace=wrap;rounded=0;" vertex="1" parent="WIyWlLk6GJQsqaUBKTNV-1">
          <mxGeometry x="680" y="540" width="60" height="30" as="geometry" />
        </mxCell>
        <mxCell id="qhsXSyH2O3H2NR2jMQSX-96" value="User wins" style="rounded=1;whiteSpace=wrap;html=1;strokeWidth=1;fillColor=#d5e8d4;strokeColor=#82b366;" vertex="1" parent="WIyWlLk6GJQsqaUBKTNV-1">
          <mxGeometry x="350" y="1316.88" width="90" height="28.75" as="geometry" />
        </mxCell>
        <mxCell id="qhsXSyH2O3H2NR2jMQSX-101" value="" style="edgeStyle=orthogonalEdgeStyle;rounded=0;orthogonalLoop=1;jettySize=auto;html=1;" edge="1" parent="WIyWlLk6GJQsqaUBKTNV-1" source="qhsXSyH2O3H2NR2jMQSX-98">
          <mxGeometry relative="1" as="geometry">
            <mxPoint x="400" y="1471.3000000000002" as="targetPoint" />
          </mxGeometry>
        </mxCell>
        <mxCell id="qhsXSyH2O3H2NR2jMQSX-105" value="" style="edgeStyle=orthogonalEdgeStyle;rounded=0;orthogonalLoop=1;jettySize=auto;html=1;" edge="1" parent="WIyWlLk6GJQsqaUBKTNV-1" source="qhsXSyH2O3H2NR2jMQSX-98" target="qhsXSyH2O3H2NR2jMQSX-104">
          <mxGeometry relative="1" as="geometry" />
        </mxCell>
        <mxCell id="qhsXSyH2O3H2NR2jMQSX-108" value="" style="edgeStyle=orthogonalEdgeStyle;rounded=0;orthogonalLoop=1;jettySize=auto;html=1;" edge="1" parent="WIyWlLk6GJQsqaUBKTNV-1" source="qhsXSyH2O3H2NR2jMQSX-98" target="qhsXSyH2O3H2NR2jMQSX-107">
          <mxGeometry relative="1" as="geometry" />
        </mxCell>
        <mxCell id="qhsXSyH2O3H2NR2jMQSX-98" value="Compare user&#39;s and&lt;br&gt;comp&#39;s score" style="rhombus;whiteSpace=wrap;html=1;strokeWidth=1;" vertex="1" parent="WIyWlLk6GJQsqaUBKTNV-1">
          <mxGeometry x="137.51" y="1420" width="165" height="102.5" as="geometry" />
        </mxCell>
        <mxCell id="qhsXSyH2O3H2NR2jMQSX-102" value="&amp;nbsp;Comp&#39;s score is &amp;gt; user&#39;s" style="text;html=1;strokeColor=none;fillColor=none;align=center;verticalAlign=middle;whiteSpace=wrap;rounded=0;" vertex="1" parent="WIyWlLk6GJQsqaUBKTNV-1">
          <mxGeometry x="315" y="1430" width="60" height="30" as="geometry" />
        </mxCell>
        <mxCell id="qhsXSyH2O3H2NR2jMQSX-103" value="Comp wins" style="rounded=1;whiteSpace=wrap;html=1;strokeWidth=1;fillColor=#f8cecc;strokeColor=#b85450;" vertex="1" parent="WIyWlLk6GJQsqaUBKTNV-1">
          <mxGeometry x="400" y="1453.75" width="120" height="35" as="geometry" />
        </mxCell>
        <mxCell id="qhsXSyH2O3H2NR2jMQSX-104" value="User wins" style="rounded=1;whiteSpace=wrap;html=1;strokeWidth=1;fillColor=#d5e8d4;strokeColor=#82b366;" vertex="1" parent="WIyWlLk6GJQsqaUBKTNV-1">
          <mxGeometry x="2.5" y="1456.8700000000001" width="90" height="28.75" as="geometry" />
        </mxCell>
        <mxCell id="qhsXSyH2O3H2NR2jMQSX-106" value="User&#39;s score is &amp;gt; comp&#39;s" style="text;html=1;strokeColor=none;fillColor=none;align=center;verticalAlign=middle;whiteSpace=wrap;rounded=0;" vertex="1" parent="WIyWlLk6GJQsqaUBKTNV-1">
          <mxGeometry x="92.5" y="1410" width="60" height="43.75" as="geometry" />
        </mxCell>
        <mxCell id="qhsXSyH2O3H2NR2jMQSX-107" value="Draw" style="rounded=1;whiteSpace=wrap;html=1;strokeWidth=1;fillColor=#ffe6cc;strokeColor=#d79b00;" vertex="1" parent="WIyWlLk6GJQsqaUBKTNV-1">
          <mxGeometry x="160" y="1580" width="120" height="40" as="geometry" />
        </mxCell>
        <mxCell id="qhsXSyH2O3H2NR2jMQSX-109" value="Comp&#39;s and user&#39;s score are equal" style="text;html=1;strokeColor=none;fillColor=none;align=center;verticalAlign=middle;whiteSpace=wrap;rounded=0;" vertex="1" parent="WIyWlLk6GJQsqaUBKTNV-1">
          <mxGeometry x="242.51" y="1530" width="87.49" height="30" as="geometry" />
        </mxCell>
        <mxCell id="qhsXSyH2O3H2NR2jMQSX-110" value="Your cars: [2, 10], current score: 12" style="whiteSpace=wrap;html=1;align=center;fillColor=#dae8fc;strokeColor=#6c8ebf;" vertex="1" parent="WIyWlLk6GJQsqaUBKTNV-1">
          <mxGeometry x="335" y="307.5" width="200" height="25" as="geometry" />
        </mxCell>
        <mxCell id="qhsXSyH2O3H2NR2jMQSX-111" value="Your final hand: [11, 10], final score: 0" style="whiteSpace=wrap;html=1;align=center;fillColor=#dae8fc;strokeColor=#6c8ebf;" vertex="1" parent="WIyWlLk6GJQsqaUBKTNV-1">
          <mxGeometry x="535" y="420" width="200" height="37.5" as="geometry" />
        </mxCell>
        <mxCell id="qhsXSyH2O3H2NR2jMQSX-112" value="Comp&#39;s final hand: [10, 10], final score: 20" style="whiteSpace=wrap;html=1;align=center;fillColor=#dae8fc;strokeColor=#6c8ebf;" vertex="1" parent="WIyWlLk6GJQsqaUBKTNV-1">
          <mxGeometry x="535" y="482.5" width="200" height="37.5" as="geometry" />
        </mxCell>
      </root>
    </mxGraphModel>
  </diagram>
</mxfile>
